<svg xmlns="http://www.w3.org/2000/svg" width="88" height="40" viewBox="0 0 88 40" fill="none">
    <g clip-path="url(#clip0_9_2328)">
        <path
            d="M0.910156 0.187074H2.71837C3.71144 0.14813 4.69119 0.425745 5.51622 0.979848C5.93833 1.30041 6.27606 1.7189 6.50025 2.19918C6.72444 2.67945 6.82835 3.20709 6.80302 3.73651C6.82805 4.26751 6.72461 4.79671 6.50148 5.2792C6.27836 5.7617 5.94212 6.18324 5.52132 6.50807C4.6941 7.06135 3.71302 7.33868 2.71857 7.30034H0.910156V0.187074ZM2.64518 1.79762V5.6898H2.75006C3.33212 5.7142 3.90791 5.56162 4.4015 5.25217C4.62482 5.07065 4.8014 4.83826 4.91646 4.57448C5.03151 4.31069 5.08169 4.02318 5.06279 3.73601C5.0811 3.45186 5.03054 3.16749 4.91541 2.90706C4.80028 2.64664 4.62398 2.41785 4.4015 2.24015C3.90954 1.92694 3.33322 1.77246 2.75056 1.79762H2.64518Z"
            fill="black" />
        <path d="M10.8818 0.187012V7.30028H9.14673V0.187012H10.8818Z" fill="black" />
        <path
            d="M26.13 2.5582C25.9399 2.27913 25.6875 2.04813 25.3927 1.88351C25.0979 1.71889 24.7689 1.62516 24.4316 1.60975C24.1264 1.60199 23.8236 1.66586 23.5475 1.79624C23.2714 1.92662 23.0297 2.11989 22.8418 2.36053C22.5212 2.74835 22.3493 3.23777 22.3571 3.74091C22.3492 4.03453 22.4042 4.32645 22.5184 4.59707C22.6326 4.86769 22.8033 5.11076 23.0192 5.30996C23.2073 5.49353 23.4298 5.63816 23.674 5.73558C23.9181 5.833 24.179 5.88128 24.4419 5.87767C24.7839 5.86272 25.1177 5.76773 25.4164 5.60034C25.7151 5.43294 25.9703 5.1978 26.1616 4.91382L27.407 6.05504C27.0459 6.48906 26.5966 6.84126 26.0889 7.08823C25.5812 7.33519 25.0268 7.47127 24.4625 7.48741C23.7668 7.49202 23.0828 7.30851 22.4828 6.9563C22.0577 6.71477 21.6849 6.39109 21.3861 6.0041C21.0873 5.61712 20.8685 5.17456 20.7424 4.7022C20.6163 4.22984 20.5854 3.7371 20.6516 3.25269C20.7177 2.76828 20.8796 2.30187 21.1277 1.8806C21.4662 1.30083 21.9538 0.822238 22.5398 0.494526C23.1324 0.16494 23.8003 -0.00543945 24.4784 4.4066e-06C25.2002 -0.0032842 25.9051 0.218808 26.4947 0.635303C26.8153 0.863437 27.1103 1.12551 27.3746 1.41698L26.13 2.5582Z"
            fill="black" />
        <path
            d="M35.8623 1.23977C36.5119 1.91172 36.8713 2.81217 36.8628 3.74677C36.8659 4.40655 36.6857 5.05423 36.3422 5.61757C36.0112 6.17304 35.543 6.63409 34.9824 6.95646C34.3844 7.30915 33.7017 7.49273 33.0074 7.48757C32.3319 7.48654 31.6693 7.30304 31.0894 6.95646C30.5141 6.62782 30.0367 6.15192 29.7062 5.57767C29.3757 5.00342 29.204 4.35153 29.2088 3.68898C29.2067 3.04743 29.3872 2.41852 29.7295 1.87586C30.0774 1.30271 30.5652 0.827378 31.1472 0.494484C31.7224 0.168856 32.3724 -0.00156353 33.0333 -3.7206e-05C33.5664 -0.00942053 34.0951 0.0965098 34.5834 0.310499C35.0717 0.524488 35.5079 0.84148 35.8623 1.23977ZM31.4439 2.36559C31.1141 2.76347 30.9383 3.26666 30.9486 3.78336C30.9538 4.33554 31.1749 4.86376 31.5644 5.25514C31.954 5.64651 32.4812 5.86999 33.0333 5.87783C33.4072 5.87774 33.7735 5.77285 34.0908 5.57508C34.4087 5.38829 34.6716 5.1208 34.8528 4.79969C35.0341 4.47858 35.1273 4.11527 35.1229 3.74657C35.1287 3.4578 35.0743 3.17099 34.963 2.90445C34.8518 2.63792 34.6861 2.39752 34.4767 2.19861C34.2854 2.00751 34.0575 1.85689 33.8067 1.75571C33.5559 1.65454 33.2873 1.60488 33.0169 1.60971C32.7141 1.60525 32.4144 1.67119 32.1414 1.80232C31.8684 1.93346 31.6297 2.12641 31.4439 2.36559Z"
            fill="black" />
        <path
            d="M40.2312 0.187012L41.7791 4.87716L43.327 0.187012H45.1612L42.7584 7.30028H40.794L38.3921 0.187012H40.2312Z"
            fill="black" />
        <path
            d="M51.5587 1.77646H48.9891V2.90218H51.2715V4.50192H48.9891V5.68974H51.6522V7.30028H47.2695V0.187012H51.5588L51.5587 1.77646Z"
            fill="black" />
        <path
            d="M56.2682 4.91922C56.2457 4.91921 56.2231 4.92085 56.2008 4.92412C56.1072 4.92972 56.0185 4.92972 55.9348 4.92972H55.9448V7.30034H54.2095V0.18707H56.2463C56.7393 0.166673 57.2314 0.242962 57.695 0.411635C58.2091 0.622793 58.6255 1.0187 58.8623 1.52146C59.0247 1.85402 59.1085 2.21949 59.1071 2.58959C59.0996 2.96573 59.0083 3.33546 58.8397 3.67182C58.6089 4.07237 58.2519 4.38526 57.8246 4.56167L59.6543 7.30064H57.5916L56.2682 4.91922ZM55.9348 3.35047H56.3347C56.6456 3.37295 56.9564 3.30551 57.23 3.1562C57.3223 3.09418 57.397 3.0094 57.4469 2.91005C57.4968 2.8107 57.5203 2.70015 57.5149 2.58909C57.5149 2.00588 57.1115 1.77162 56.3351 1.77162H55.9352L55.9348 3.35047Z"
            fill="black" />
        <path
            d="M16.7505 2.98552L16.1153 2.75115C15.6822 2.58988 15.481 2.4727 15.4617 2.16655C15.456 2.06979 15.4784 1.97344 15.5262 1.88911C15.5739 1.80478 15.6451 1.73605 15.731 1.69122C15.8728 1.63092 16.027 1.60535 16.1807 1.61666C16.3343 1.62796 16.4831 1.67581 16.6146 1.75621C16.8239 1.9194 16.9889 2.13255 17.0945 2.37611L18.6564 1.95618C18.6312 1.79204 18.581 1.6327 18.5078 1.48366C18.4427 1.34157 18.365 1.20564 18.2755 1.07752L18.2594 1.05352L18.2574 1.05562L18.2426 1.03893C18.1409 0.899303 18.0261 0.769703 17.8998 0.651888C17.7813 0.536744 17.6515 0.433747 17.5125 0.344437C17.1109 0.106351 16.65 -0.0130747 16.1832 -8.46956e-06C15.6191 -0.0122775 15.0664 0.159723 14.6089 0.489914C14.3335 0.679051 14.1097 0.933951 13.9578 1.23149C13.8059 1.52902 13.7307 1.85978 13.739 2.19374C13.739 3.11066 14.2981 3.78102 15.4163 4.20482L16.0203 4.43419C16.6456 4.66845 16.8208 4.84232 16.8546 5.11638C16.8718 5.21841 16.8646 5.32307 16.8335 5.42178C16.8025 5.52049 16.7485 5.61044 16.6761 5.68429C16.5894 5.76167 16.4867 5.81905 16.3754 5.85236C16.2641 5.88568 16.1468 5.89411 16.0319 5.87706C15.8904 5.88187 15.7505 5.84557 15.6292 5.77255C15.5079 5.69953 15.4103 5.59292 15.3484 5.46562C15.266 5.27526 15.2042 5.07667 15.1639 4.87322L13.4578 5.34004C13.5251 5.65226 13.6301 5.95514 13.7705 6.242C13.9088 6.49666 14.096 6.72147 14.3214 6.90349C14.7965 7.29374 15.3956 7.5008 16.0103 7.4871C16.4561 7.49349 16.8965 7.38977 17.2927 7.18515C17.6844 6.98146 18.0152 6.67763 18.2514 6.30459C18.4771 5.94 18.5961 5.51946 18.5948 5.09068C18.6039 4.61086 18.424 4.14671 18.0938 3.79839C17.7154 3.42666 17.2554 3.14833 16.7505 2.98552Z"
            fill="black" />
        <path
            d="M10.9441 27.059L0.910156 9.64111H9.03756L14.5608 19.5195L20.084 9.64111H28.1887L18.1593 27.059V39.2138H10.9441V27.059Z"
            fill="black" />
        <path
            d="M55.9986 14.0194C58.2785 16.4155 59.7083 19.494 60.0684 22.7818C60.4285 26.0695 59.6989 29.3846 57.9918 32.2174C56.6163 34.528 54.6685 36.4452 52.3363 37.784C49.8506 39.251 47.0129 40.0147 44.1267 39.9936C41.3187 39.9887 38.5642 39.2253 36.1544 37.784C33.7622 36.4177 31.7768 34.4393 30.4022 32.0519C29.0275 29.6645 28.3131 26.9542 28.3324 24.1994C28.3241 21.5318 29.0755 18.9169 30.4989 16.6606C31.945 14.279 33.9727 12.3039 36.3915 10.9207C38.7817 9.56505 41.4837 8.85536 44.2316 8.86157C46.4489 8.82209 48.6484 9.2626 50.6795 10.1529C52.7106 11.0432 54.5251 12.3622 55.9986 14.0194ZM37.6274 18.6987C36.2548 20.3516 35.523 22.4433 35.566 24.5914C35.5878 26.8867 36.5065 29.0824 38.1258 30.7094C39.745 32.3363 41.9364 33.2654 44.2316 33.2981C45.787 33.2989 47.3116 32.8644 48.6329 32.0438C49.9738 31.2487 51.0801 30.1125 51.8392 28.7509C52.5565 27.4273 52.9282 25.9441 52.9201 24.4386C52.9439 23.2385 52.7173 22.0466 52.2547 20.939C51.7922 19.8314 51.1039 18.8323 50.2337 18.0055C49.439 17.2106 48.4923 16.5841 47.4501 16.1632C46.4079 15.7423 45.2916 15.5358 44.1678 15.5559C42.9087 15.5374 41.6625 15.8117 40.5275 16.3572C39.3925 16.9026 38.3997 17.7041 37.6274 18.6987Z"
            fill="black" />
        <path
            d="M71.3779 9.64111V27.6882C71.2605 28.9956 71.4624 30.3119 71.9663 31.5239C72.4425 32.0803 73.0336 32.527 73.6989 32.8333C74.3641 33.1395 75.0878 33.2981 75.8202 33.2981C76.5526 33.2981 77.2763 33.1395 77.9416 32.8333C78.6069 32.527 79.1979 32.0803 79.6742 31.5239C80.178 30.3119 80.3799 28.9956 80.2625 27.6882V9.64111H87.4732V28.4455C87.4732 31.6518 86.8255 33.7772 85.2886 35.7044C84.1225 37.1256 82.6275 38.241 80.933 38.9538C79.3178 39.6466 77.5776 40.0005 75.8201 39.9937C73.3137 40.0242 70.8574 39.2908 68.7781 37.8911C65.5717 35.7476 64.1672 32.8878 64.1672 28.4455V9.64111H71.3779Z"
            fill="black" />
        <path d="M71.3781 5.13574H64.0603V7.46927H71.3781V5.13574Z" fill="black" />
        <path d="M71.3781 2.14917H64.0603V3.74362H71.3781V2.14917Z" fill="black" />
        <path d="M71.3781 0.230835H64.0603V1.02811H71.3781V0.230835Z" fill="black" />
        <path d="M87.5801 5.13574H80.2625V7.46927H87.5801V5.13574Z" fill="black" />
        <path d="M87.5801 2.14917H80.2625V3.74362H87.5801V2.14917Z" fill="black" />
        <path d="M87.5801 0.230835H80.2625V1.02811H87.5801V0.230835Z" fill="black" />
    </g>
    <defs>
        <clipPath id="clip0_9_2328">
            <rect width="86.67" height="39.9936" fill="white" transform="translate(0.910156)" />
        </clipPath>
    </defs>
</svg>