<?xml version="1.0" standalone="no"?>
<!DOCTYPE svg PUBLIC "-//W3C//DTD SVG 20010904//EN"
 "http://www.w3.org/TR/2001/REC-SVG-20010904/DTD/svg10.dtd">
<svg version="1.0" xmlns="http://www.w3.org/2000/svg"
 width="500.000000pt" height="200.000000pt" viewBox="0 0 500.000000 200.000000"
 preserveAspectRatio="xMidYMid meet">

<g transform="translate(0.000000,200.000000) scale(0.100000,-0.100000)"
fill="#000000" stroke="none">
<path d="M2168 1429 c-1 -49 -2 -106 -2 -126 l-1 -37 100 -1 c55 -1 148 1 208
4 93 5 110 4 130 -12 18 -14 19 -16 3 -10 -13 4 -17 3 -12 -5 4 -7 3 -12 -3
-12 -6 0 -8 -6 -5 -14 3 -8 -2 -26 -11 -40 -9 -14 -17 -29 -17 -33 0 -20 -18
-34 -82 -63 -67 -30 -167 -94 -174 -111 -7 -16 -120 -79 -153 -85 -29 -5 -24
1 43 45 107 72 141 134 103 188 -9 12 -32 27 -52 32 -83 23 -259 -48 -360
-146 -54 -51 -96 -73 -111 -58 -4 4 -7 28 -7 55 0 60 -24 90 -70 90 -23 0 -60
-18 -124 -60 l-90 -59 20 51 c34 86 8 119 -79 103 -47 -9 -122 -84 -147 -148
l-17 -46 -22 32 c-30 44 -82 70 -206 102 -58 15 -108 30 -113 34 -12 12 23 37
77 55 61 20 95 20 120 1 45 -34 143 -6 177 49 23 38 24 60 3 80 -54 55 -552
-45 -654 -131 -26 -21 -30 -32 -30 -72 0 -37 5 -52 22 -68 36 -32 55 -40 208
-78 79 -20 151 -40 159 -45 29 -16 -39 -25 -184 -25 -112 1 -157 5 -223 23
-46 12 -87 20 -93 17 -16 -10 -10 -78 10 -115 29 -55 87 -72 241 -72 192 -1
374 46 458 116 l32 28 0 -26 c0 -14 5 -36 11 -50 14 -30 72 -60 99 -51 11 4
68 38 125 76 58 38 109 69 113 69 4 0 15 -22 25 -49 13 -39 24 -51 48 -60 32
-11 93 -3 143 21 23 10 29 8 49 -10 12 -12 44 -31 71 -43 41 -18 61 -21 116
-15 70 6 160 33 210 63 30 17 30 17 63 -15 76 -74 127 -66 319 47 l37 22 19
-44 c15 -34 26 -45 50 -50 39 -8 87 6 143 41 l45 29 13 -29 c15 -34 64 -62 96
-54 12 3 46 22 75 41 l52 35 45 -40 c80 -70 147 -73 246 -11 l47 30 36 -24
c96 -65 224 -56 385 27 72 37 219 149 219 167 0 5 7 12 15 15 11 4 8 -5 -8
-27 -64 -85 -75 -156 -31 -198 22 -21 35 -24 98 -24 49 0 86 6 116 19 67 29
161 98 214 157 40 45 47 57 44 88 -4 53 -40 54 -115 3 -87 -58 -153 -95 -160
-89 -3 4 17 32 46 62 56 62 62 88 30 129 -18 23 -27 26 -84 26 -43 0 -66 5
-75 15 -20 25 -81 18 -131 -14 -54 -35 -122 -105 -140 -146 -9 -19 -33 -40
-67 -58 -49 -27 -112 -50 -112 -42 0 2 32 24 70 50 119 79 152 148 97 203 -23
22 -35 26 -79 25 -107 -3 -223 -59 -328 -158 -36 -34 -87 -74 -113 -89 l-47
-28 -30 22 c-39 28 -38 42 6 75 80 61 118 151 75 175 -62 33 -140 -4 -223
-106 -63 -77 -86 -84 -50 -16 10 20 58 93 106 162 47 69 86 132 86 142 0 25
-28 48 -58 48 -41 0 -107 -37 -158 -88 -57 -58 -145 -191 -169 -255 -12 -33
-30 -57 -58 -77 -23 -17 -44 -30 -48 -30 -4 0 -14 18 -23 40 -31 79 -93 77
-237 -6 -43 -25 -84 -44 -91 -42 -18 6 67 61 164 106 60 28 87 46 91 61 3 12
11 20 19 19 7 -2 13 4 13 12 0 8 4 18 8 21 13 9 85 183 92 222 5 24 2 46 -8
66 -9 17 -12 31 -7 31 9 0 18 30 13 45 -2 6 -34 8 -85 5 -92 -7 -574 -3 -613
4 -25 5 -25 5 -27 -85z m679 47 c3 -2 12 -2 21 1 13 4 14 3 4 -5 -8 -5 -12
-15 -11 -23 2 -8 -3 -25 -10 -37 -7 -13 -10 -26 -8 -29 8 -7 -16 -79 -52 -155
-17 -36 -31 -70 -31 -75 0 -5 -17 -9 -37 -9 -21 0 -62 -4 -91 -8 l-53 -9 15
38 c9 20 13 42 9 48 -3 6 -1 7 5 3 7 -4 12 -3 12 2 0 5 9 19 20 32 11 12 17
27 14 31 -3 5 0 9 7 9 9 0 9 3 0 14 -9 10 -50 14 -182 15 -93 0 -168 -2 -166
-7 3 -4 -7 -8 -21 -9 -67 -4 -92 -9 -92 -16 0 -5 -4 -6 -8 -3 -5 3 -6 31 -2
63 4 32 6 71 5 88 -1 16 3 34 8 40 10 10 634 12 644 1z m469 -131 c4 -8 -29
-65 -79 -138 -128 -186 -160 -259 -121 -274 12 -4 31 9 63 44 25 28 67 73 92
101 50 55 99 73 139 52 l21 -11 -22 -37 c-11 -20 -48 -62 -82 -92 l-60 -54 43
-38 c50 -45 69 -47 127 -12 l44 25 -3 -53 -3 -53 -67 -34 c-86 -43 -117 -39
-191 29 l-53 49 -64 -45 c-69 -48 -93 -53 -122 -27 -29 26 -23 65 18 104 57
53 94 109 94 141 0 37 -22 45 -66 25 -19 -9 -34 -13 -34 -9 0 16 55 110 95
162 58 76 101 116 149 140 49 24 75 25 82 5z m-2039 -81 c21 -56 -117 -127
-157 -79 -36 43 -240 -26 -240 -82 0 -21 40 -39 140 -63 104 -24 184 -60 194
-85 31 -82 -54 -144 -256 -186 -119 -24 -300 -30 -366 -11 -45 14 -66 38 -77
91 -7 32 -6 33 16 28 141 -32 187 -38 294 -39 126 0 194 12 216 38 20 24 -5
38 -114 64 -184 45 -262 71 -279 91 -27 32 -23 83 8 108 99 78 600 179 621
125z m981 -150 c13 -9 22 -26 22 -42 0 -38 -91 -122 -180 -165 -65 -32 -70
-36 -52 -46 34 -18 94 -12 150 14 30 14 58 25 64 25 5 0 8 -17 6 -37 -3 -37
-4 -39 -82 -70 -138 -55 -254 -53 -308 4 -23 24 -23 25 -3 36 11 6 44 33 73
60 35 34 52 45 52 33 0 -22 3 -21 73 21 81 48 97 62 97 84 0 45 -69 45 -126 0
-23 -18 -28 -19 -41 -6 -8 8 -20 15 -26 15 -23 1 69 51 128 70 74 23 124 25
153 4z m1672 -4 c25 -25 25 -37 0 -77 -24 -41 -86 -86 -173 -128 -61 -30 -66
-35 -48 -44 39 -21 103 -13 173 23 l67 35 16 -25 c9 -13 13 -30 9 -36 -11 -18
-165 -85 -222 -97 -90 -19 -158 -9 -204 29 l-23 19 39 32 c21 18 51 50 66 71
25 34 28 36 33 17 6 -21 6 -20 57 8 59 32 120 80 120 93 0 5 -11 17 -24 25
-22 14 -27 14 -65 -1 -23 -9 -52 -30 -66 -46 -16 -19 -25 -24 -25 -14 0 8 -9
21 -21 29 -20 14 -19 15 14 36 105 64 239 89 277 51z m293 -1 c13 -17 23 -20
76 -17 46 2 64 -1 71 -12 18 -29 9 -51 -45 -110 -59 -64 -62 -69 -43 -88 22
-22 45 -13 152 58 110 72 120 77 131 60 20 -32 -109 -156 -218 -212 -116 -58
-237 -48 -237 20 0 34 33 97 71 137 35 38 37 53 4 61 -13 3 -27 15 -30 25 -9
26 -54 25 -96 -4 -60 -41 -62 -41 -51 -21 15 27 71 78 112 103 45 27 85 27
103 0z m-1493 -4 c0 -9 -37 -33 -95 -60 -110 -53 -165 -96 -165 -131 0 -36 42
-31 129 17 48 26 77 36 81 29 4 -7 13 -4 24 9 22 24 61 35 84 22 9 -5 21 -24
27 -42 17 -48 36 -57 73 -31 16 12 33 22 37 22 3 0 5 -19 3 -42 -3 -39 -7 -46
-53 -76 -63 -41 -121 -58 -141 -41 -8 6 -20 32 -28 58 -8 25 -18 45 -24 44 -6
-1 -45 -23 -87 -49 -97 -59 -169 -87 -205 -79 -15 3 -39 19 -54 34 l-28 29 44
30 c23 17 63 51 88 77 40 40 45 51 45 90 0 40 3 45 22 45 12 0 39 10 60 21 32
18 84 31 151 38 6 0 12 -6 12 -14z m-1256 -1 c22 -8 20 -30 -9 -92 -23 -50
-24 -82 -3 -82 6 0 40 22 77 49 130 96 170 110 191 70 7 -12 9 -37 5 -59 -10
-57 8 -84 51 -77 l35 6 -6 -37 c-10 -59 -11 -60 -71 -78 -70 -20 -99 -10 -109
38 -12 61 -16 68 -39 68 -13 0 -61 -25 -107 -55 -46 -30 -103 -64 -126 -76
-40 -22 -42 -22 -69 -5 -25 17 -26 21 -22 85 8 109 62 205 133 237 34 15 47
17 69 8z m664 -76 c-6 -16 -96 -73 -104 -65 -11 11 16 44 48 60 40 20 61 21
56 5z m1666 4 c6 -10 -32 -40 -81 -66 -42 -21 -45 -1 -5 36 37 35 75 48 86 30z
m-1344 -22 c0 -25 -48 -80 -111 -124 l-49 -36 0 39 c0 35 5 42 53 78 87 67
107 75 107 43z m600 10 c0 -21 -29 -66 -64 -99 l-36 -35 0 33 c0 43 15 68 53
91 36 23 47 25 47 10z m1057 -33 c-9 -14 -37 -42 -62 -62 -37 -31 -48 -35 -60
-25 -8 7 -15 18 -15 25 0 15 62 67 106 90 37 19 52 4 31 -28z m-2127 16 c0
-21 -45 -76 -92 -114 -42 -33 -54 -38 -56 -25 -7 33 19 83 60 114 38 29 88 43
88 25z m1640 -29 c0 -32 -108 -143 -120 -124 -15 25 9 85 47 117 47 41 73 43
73 7z"/>
<path d="M2646 774 c-3 -8 -10 -13 -15 -10 -13 9 -31 -41 -66 -191 -30 -131
-32 -136 -58 -139 -15 -1 -29 1 -32 6 -3 4 -38 6 -80 3 l-74 -5 8 29 c5 17 14
40 20 51 14 27 14 35 -1 27 -7 -4 -6 -1 3 7 9 7 14 19 11 27 -3 9 0 11 8 6 9
-5 11 -4 6 3 -4 6 -2 21 5 33 18 35 29 79 18 79 -5 0 -9 -7 -9 -15 0 -8 -4
-15 -8 -15 -4 0 -14 -21 -21 -47 -8 -27 -18 -55 -22 -63 -19 -39 -49 -125 -49
-141 0 -13 6 -17 23 -13 44 10 136 4 179 -11 77 -27 93 -18 101 55 3 25 10 59
16 77 5 18 7 41 4 53 -3 12 0 20 7 20 7 0 10 8 7 20 -3 11 -1 20 4 20 5 0 9 9
9 21 0 11 4 28 10 38 12 23 20 91 10 91 -4 0 -11 -7 -14 -16z"/>
</g>
</svg>
