<svg xmlns="http://www.w3.org/2000/svg" width="51" height="87" viewBox="0 0 51 87" fill="none">
    <g clip-path="url(#clip0_9_2299)">
        <path
            d="M49.7296 30.8708C49.3383 30.4799 48.8078 30.2603 48.2547 30.2603C47.7015 30.2603 47.171 30.4799 46.7798 30.8708L3.74624 73.9056C3.55261 74.0992 3.39902 74.3291 3.29422 74.5821C3.18943 74.835 3.1355 75.1062 3.1355 75.38C3.1355 75.6539 3.18943 75.925 3.29422 76.178C3.39902 76.431 3.55261 76.6609 3.74624 76.8545C3.93987 77.0481 4.16974 77.2017 4.42273 77.3065C4.67572 77.4113 4.94687 77.4652 5.2207 77.4652C5.49453 77.4652 5.76569 77.4113 6.01868 77.3065C6.27166 77.2017 6.50153 77.0481 6.69516 76.8545L49.7296 33.82C50.1205 33.4288 50.3401 32.8985 50.3401 32.3455C50.3401 31.7925 50.1205 31.262 49.7296 30.8708Z"
            fill="#F15E2C" />
        <path
            d="M5.30553 62.781L42.15 25.9357C42.541 25.5447 42.7607 25.0144 42.7607 24.4615C42.7608 23.9085 42.5411 23.3782 42.1502 22.9872C41.7592 22.5962 41.2289 22.3765 40.676 22.3765C40.123 22.3764 39.5927 22.5961 39.2017 22.987L2.356 59.8326C1.96503 60.2238 1.74546 60.7543 1.74561 61.3073C1.74575 61.8604 1.96558 62.3907 2.35675 62.7817C2.74792 63.1727 3.27839 63.3923 3.83145 63.3921C4.3845 63.392 4.91456 63.1721 5.30553 62.781Z"
            fill="#F15E2C" />
        <path
            d="M2.88499 50.075C3.15884 50.0754 3.43009 50.0217 3.68316 49.9171C3.93622 49.8124 4.16613 49.6588 4.3597 49.465L27.6512 26.1722C28.039 25.7806 28.256 25.2513 28.2547 24.7001C28.2533 24.149 28.0338 23.6207 27.644 23.231C27.2543 22.8413 26.7261 22.6217 26.1749 22.6204C25.6237 22.619 25.0944 22.836 24.7028 23.2238L18.1832 29.7434L12.33 23.8893C11.9385 23.5006 11.4088 23.2829 10.8571 23.2839C10.3054 23.285 9.77653 23.5046 9.38645 23.8948C8.99637 24.285 8.77684 24.8139 8.77595 25.3656C8.77506 25.9174 8.99288 26.447 9.3817 26.8384L15.2344 32.6915L10.4519 37.4748L5.27224 32.2945C5.07869 32.1008 4.84889 31.9472 4.59596 31.8424C4.34304 31.7376 4.07195 31.6836 3.79817 31.6836C3.52439 31.6835 3.25328 31.7374 3.00032 31.8421C2.74735 31.9468 2.5175 32.1004 2.32387 32.2939C2.13024 32.4875 1.97663 32.7173 1.87181 32.9702C1.76699 33.2231 1.71302 33.4942 1.71297 33.768C1.71291 34.0418 1.76679 34.3129 1.87151 34.5658C1.97624 34.8188 2.12976 35.0487 2.32332 35.2423L7.50381 40.4239L1.41117 46.5166C1.11961 46.8081 0.921044 47.1796 0.840599 47.5839C0.760153 47.9883 0.80144 48.4075 0.959236 48.7884C1.11703 49.1693 1.38425 49.4948 1.72709 49.7239C2.06993 49.9529 2.47269 50.0751 2.88499 50.075Z"
            fill="#F15E2C" />
        <path
            d="M24.0033 16.428C24.3944 16.8187 24.9247 17.0382 25.4775 17.0382C26.0303 17.0382 26.5606 16.8187 26.9517 16.428L39.8196 3.55923C40.2084 3.16779 40.4262 2.6382 40.4253 2.08647C40.4244 1.53474 40.2049 1.00585 39.8148 0.615665C39.4248 0.22548 38.8959 0.00580566 38.3442 0.00476446C37.7925 0.00372326 37.2628 0.2214 36.8713 0.61011L24.0033 13.4782C23.8096 13.6719 23.6558 13.9018 23.551 14.1549C23.4461 14.4079 23.3921 14.6792 23.3921 14.9532C23.3921 15.2271 23.4461 15.4984 23.551 15.7514C23.6558 16.0045 23.8096 16.2343 24.0033 16.428Z"
            fill="#F15E2C" />
        <path
            d="M50.1863 45.5704C49.9927 45.3767 49.7628 45.223 49.5098 45.1182C49.2569 45.0133 48.9857 44.9594 48.7118 44.9594C48.438 44.9594 48.1668 45.0133 47.9138 45.1182C47.6608 45.223 47.4309 45.3767 47.2374 45.5704L10.1219 82.686C9.7309 83.0771 9.51133 83.6076 9.51147 84.1607C9.51162 84.7137 9.73145 85.2441 10.1226 85.635C10.5138 86.026 11.0443 86.2456 11.5973 86.2454C12.1504 86.2453 12.6807 86.0255 13.0717 85.6343L50.1863 48.5188C50.3799 48.3253 50.5336 48.0954 50.6384 47.8425C50.7432 47.5895 50.7971 47.3184 50.7971 47.0446C50.7971 46.7708 50.7432 46.4997 50.6384 46.2467C50.5336 45.9938 50.3799 45.764 50.1863 45.5704Z"
            fill="#F15E2C" />
        <path
            d="M49.9871 61.3199C49.7934 61.1262 49.5634 60.9726 49.3104 60.8678C49.0573 60.7629 48.7861 60.709 48.5121 60.709C48.2382 60.709 47.967 60.7629 47.7139 60.8678C47.4609 60.9726 47.2309 61.1262 47.0372 61.3199L40.4816 67.8763C40.1981 68.0423 39.9621 68.2785 39.7964 68.5622L32.9044 75.4541C32.621 75.6203 32.3849 75.8564 32.2186 76.1399L24.9986 83.3609C24.805 83.5545 24.6514 83.7843 24.5466 84.0373C24.4419 84.2902 24.3879 84.5613 24.3879 84.8351C24.3879 85.1089 24.4419 85.38 24.5466 85.6329C24.6514 85.8858 24.805 86.1157 24.9986 86.3092C25.1921 86.5028 25.422 86.6564 25.6749 86.7612C25.9278 86.8659 26.1989 86.9199 26.4727 86.9199C26.7465 86.9199 27.0176 86.8659 27.2705 86.7612C27.5235 86.6564 27.7533 86.5028 27.9469 86.3092L34.0358 80.2196L39.2017 85.3855C39.3952 85.5799 39.6251 85.7343 39.8783 85.8397C40.1315 85.9452 40.403 85.9996 40.6773 86C40.9515 86.0003 41.2232 85.9465 41.4766 85.8417C41.7301 85.7369 41.9604 85.5831 42.1543 85.3892C42.3483 85.1953 42.502 84.965 42.6068 84.7115C42.7116 84.458 42.7654 84.1864 42.765 83.9121C42.7647 83.6378 42.7102 83.3663 42.6048 83.1131C42.4993 82.8599 42.345 82.63 42.1505 82.4366L36.9847 77.2707L41.6136 72.6419L47.0167 78.0444C47.4083 78.4327 47.9377 78.6501 48.4891 78.649C49.0406 78.6478 49.5691 78.4283 49.9591 78.0384C50.349 77.6485 50.5686 77.12 50.5698 76.5686C50.5711 76.0172 50.3538 75.4877 49.9656 75.0961L44.5625 69.6924L49.9871 64.2689C50.3779 63.8778 50.5975 63.3476 50.5975 62.7947C50.5975 62.2418 50.3779 61.711 49.9871 61.3199Z"
            fill="#F15E2C" />
        <path
            d="M20.2792 10.7996C20.4729 10.9932 20.7028 11.1467 20.9558 11.2515C21.2088 11.3562 21.4799 11.4101 21.7538 11.4101C22.0276 11.41 22.2987 11.3561 22.5517 11.2512C22.8047 11.1464 23.0345 10.9928 23.2281 10.7991C23.4217 10.6055 23.5753 10.3756 23.6801 10.1226C23.7848 9.86955 23.8387 9.59838 23.8387 9.32455C23.8386 9.05071 23.7846 8.77957 23.6798 8.52659C23.575 8.27362 23.4214 8.04377 23.2277 7.85017L16.5008 1.12257C16.1098 0.731372 15.5795 0.511512 15.0264 0.511353C14.4733 0.511193 13.9428 0.730748 13.5516 1.12172C13.1604 1.51269 12.9406 2.04304 12.9404 2.59612C12.9403 3.14919 13.1598 3.67967 13.5508 4.07087L20.2792 10.7996Z"
            fill="#F15E2C" />
        <path
            d="M25.752 5.4526C25.9451 5.6484 26.1751 5.80406 26.4287 5.91061C26.6822 6.01717 26.9543 6.07251 27.2293 6.07346C27.5044 6.07441 27.7769 6.02094 28.0311 5.91614C28.2854 5.81134 28.5164 5.65727 28.7109 5.46281C28.9054 5.26835 29.0595 5.03733 29.1643 4.78307C29.2691 4.52881 29.3226 4.25632 29.3217 3.98129C29.3208 3.70627 29.2655 3.43415 29.159 3.18059C29.0524 2.92704 28.8968 2.69706 28.701 2.5039L27.3187 1.1226C27.1251 0.929001 26.8953 0.77543 26.6423 0.670656C26.3893 0.565882 26.1182 0.511958 25.8444 0.511963C25.5706 0.511968 25.2995 0.565901 25.0466 0.670683C24.7936 0.775465 24.5638 0.929045 24.3702 1.12265C24.1766 1.31626 24.023 1.54611 23.9182 1.79906C23.8134 2.05202 23.7595 2.32314 23.7595 2.59694C23.7595 3.1499 23.9792 3.68021 24.3702 4.0712L25.752 5.4526Z"
            fill="#F15E2C" />
    </g>
    <defs>
        <clipPath id="clip0_9_2299">
            <rect width="49.997" height="86.92" fill="white" transform="translate(0.800049)" />
        </clipPath>
    </defs>
</svg>