<svg xmlns="http://www.w3.org/2000/svg" viewBox="0 0 485 223" fill="none">
    <path d="M382.929 147.088L191.7 201.19L102.071 132.753L280.025 84.9458L382.929 147.088Z"
        fill="#303030" />
    <path d="M333.161 34.8609L200.635 63.8189L144.071 25.3219L270.234 1.18994L333.161 34.8609Z"
        fill="#808080" />
    <path d="M200.894 172.736L333.283 137.894V68.022L200.894 101.119V172.736Z" fill="#CCCCCC" />
    <path d="M226.796 166.352L314.361 143.306V85.749L226.796 107.64V166.352Z" fill="#303030" />
    <path d="M200.659 97.442L336.726 63.472V37.73L200.659 68.022V97.442Z" fill="#FF5F17" />
    <path
        d="M140 26.1997V53.1897V55.6197V129.169L200.894 172.736V97.4417V95.0117V68.0217L140 26.1997Z"
        fill="#303030" />
    <path d="M200.659 68.022V97.442L200.845 97.395V67.981L200.659 68.022Z" fill="#666666" />
    <path d="M210.477 65.8358V94.9908L210.913 94.8818V65.7388L210.477 65.8358Z" fill="#333333" />
    <path d="M220.546 63.595V92.4771L220.982 92.368V63.498L220.546 63.595Z" fill="#333333" />
    <path d="M230.614 61.3529V89.9629L231.051 89.8539V61.2559L230.614 61.3529Z" fill="#333333" />
    <path d="M240.683 59.1122V87.4502L241.119 87.3412V59.0142L240.683 59.1122Z" fill="#333333" />
    <path d="M249.844 57.0721V85.1631L250.28 85.0541V56.9751L249.844 57.0721Z" fill="#333333" />
    <path d="M259.005 55.033V82.876L259.441 82.767V54.936L259.005 55.033Z" fill="#333333" />
    <path d="M268.166 52.993V80.588L268.602 80.479V52.896L268.166 52.993Z" fill="#333333" />
    <path d="M277.327 50.954V78.301L277.763 78.192V50.856L277.327 50.954Z" fill="#333333" />
    <path d="M285.581 49.116V76.241L286.017 76.132V49.019L285.581 49.116Z" fill="#333333" />
    <path d="M293.834 47.2791V74.1801L294.27 74.0711V47.1821L293.834 47.2791Z" fill="#333333" />
    <path d="M302.088 45.4408V72.1198L302.524 72.0107V45.3438L302.088 45.4408Z" fill="#333333" />
    <path d="M309.433 43.806V70.286L309.869 70.177V43.709L309.433 43.806Z" fill="#333333" />
    <path d="M316.779 42.1698V68.4518L317.216 68.3428V42.0728L316.779 42.1698Z" fill="#333333" />
    <path d="M324.125 40.535V66.618L324.561 66.509V40.438L324.125 40.535Z" fill="#333333" />
    <path d="M330.563 39.1019V65.0109L330.999 64.9019V39.0049L330.563 39.1019Z" fill="#333333" />
    <path
        d="M270.419 130.084H269.546V124.849H270.419V130.084ZM308.274 87.2578V138.238L275.071 148.322V103.322L272.6 104.346V151.411L310.891 140.252V86.6035L308.274 87.2578Z"
        fill="#808080" />
    <path
        d="M179.986 99.2009C179.573 98.3048 178.901 97.8142 178.485 98.1037L156.572 112.665C156.159 112.926 156.159 113.866 156.572 114.766C156.738 115.158 156.994 115.506 157.318 115.782C157.412 115.881 157.535 115.949 157.669 115.974C157.803 116 157.941 115.983 158.065 115.925L179.978 101.351C180.395 101.061 180.398 100.097 179.986 99.2009Z"
        fill="#808080" />
    <path
        d="M157.364 105.34L176.139 92.7946C176.555 92.5046 176.559 91.5461 176.146 90.6532C175.733 89.7603 175.06 89.2723 174.643 89.562L155.868 102.095C155.455 102.359 155.455 103.299 155.868 104.196C156.035 104.586 156.291 104.931 156.616 105.203C156.71 105.302 156.834 105.368 156.968 105.392C157.102 105.417 157.241 105.398 157.364 105.34Z"
        fill="#808080" />
    <path
        d="M156.618 95.0362C156.713 95.1337 156.837 95.1986 156.971 95.2218C157.106 95.245 157.244 95.2253 157.367 95.1654L169.236 87.2454C169.653 86.9605 169.654 86.0076 169.241 85.1177C168.827 84.2278 168.154 83.7383 167.738 84.0231L164.41 86.2825L161.433 79.8966C161.019 79.0104 160.346 78.5181 159.931 78.7966C159.516 79.0751 159.515 80.0184 159.93 80.9056L162.906 87.2927L160.469 88.9171L157.835 83.2601C157.42 82.3726 156.748 81.8752 156.334 82.1489C155.919 82.4226 155.919 83.3617 156.334 84.2498L158.968 89.9088L155.869 91.9358C155.455 92.2042 155.455 93.1441 155.869 94.0358C156.036 94.4238 156.292 94.767 156.618 95.0362Z"
        fill="#808080" />
    <path
        d="M167.391 78.8681C167.557 79.2527 167.815 79.5907 168.142 79.8523C168.24 79.9474 168.366 80.0087 168.501 80.0273C168.637 80.0459 168.775 80.0209 168.895 79.9559L175.486 75.3529C175.904 75.0576 175.907 74.0985 175.493 73.2129C175.079 72.3273 174.404 71.8498 173.986 72.1448L167.395 76.7436C166.978 77.0301 166.977 77.9811 167.391 78.8681Z"
        fill="#808080" />
    <path
        d="M180.177 110.089C179.766 109.188 179.095 108.691 178.679 108.977L159.798 121.442C159.385 121.702 159.385 122.646 159.796 123.55C159.962 123.943 160.217 124.292 160.542 124.57C160.635 124.67 160.757 124.738 160.891 124.764C161.025 124.79 161.164 124.773 161.288 124.716L180.169 112.239C180.585 111.953 180.589 110.989 180.177 110.089Z"
        fill="#808080" />
    <path
        d="M180.032 121.496C179.621 120.591 178.952 120.086 178.536 120.368L175.195 122.615C175.125 122.621 175.058 122.644 174.999 122.683C174.937 122.726 174.885 122.783 174.846 122.848L171.341 125.168C171.271 125.174 171.203 125.196 171.144 125.234C171.082 125.277 171.031 125.332 170.992 125.397L167.325 127.783C166.912 128.049 166.911 128.999 167.321 129.906C167.487 130.3 167.742 130.65 168.066 130.928C168.16 131.028 168.283 131.095 168.417 131.12C168.551 131.145 168.69 131.127 168.813 131.068L171.905 129.057L174.509 134.822C174.673 135.216 174.928 135.566 175.253 135.844C175.347 135.943 175.47 136.009 175.605 136.034C175.739 136.058 175.878 136.038 176.001 135.977C176.415 135.704 176.418 134.745 176.007 133.835L173.403 128.073L175.758 126.513L178.482 132.537C178.646 132.931 178.901 133.28 179.227 133.555C179.321 133.654 179.445 133.72 179.58 133.742C179.715 133.765 179.853 133.744 179.975 133.683C180.39 133.405 180.393 132.442 179.983 131.533L177.26 125.509L180.025 123.646C180.44 123.364 180.443 122.402 180.032 121.496Z"
        fill="#808080" />
    <path
        d="M165.498 73.4455C165.664 73.8294 165.923 74.1664 166.25 74.427C166.348 74.5217 166.474 74.5826 166.61 74.6009C166.745 74.6191 166.883 74.5939 167.003 74.5287C167.419 74.2411 167.421 73.2903 167.007 72.4054L163.579 65.1119C163.164 64.2309 162.489 63.7497 162.072 64.0365C161.656 64.3233 161.655 65.2681 162.07 66.1491L165.498 73.4455Z"
        fill="#808080" />
    <path
        d="M168.298 71.6009C168.464 71.9848 168.723 72.3215 169.05 72.5809C169.149 72.6753 169.276 72.7356 169.411 72.753C169.547 72.7704 169.684 72.7441 169.804 72.6778C170.221 72.3871 170.223 71.4334 169.809 70.5491L169.106 69.0499C168.691 68.1665 168.016 67.6866 167.599 67.9776C167.182 68.2686 167.18 69.2185 167.595 70.102L168.298 71.6009Z"
        fill="#808080" />
    <path
        d="M258.46 66.9405C257.956 66.5237 257.36 66.2339 256.721 66.0955C256.082 65.957 255.419 65.974 254.788 66.145C253.722 66.4163 252.762 67.0021 252.033 67.8262L252.035 67.1772L248.997 67.8698L248.962 76.9825L245.927 76.5666L245.914 62.9092L241.129 63.9917L226.545 84.93L229.795 85.062L234.561 78.1669L248.95 80.1387V80.1577L251.989 79.4512L252.012 73.3151C251.932 72.2993 252.124 71.2804 252.57 70.3642C253.034 69.684 253.747 69.2148 254.556 69.0592C254.822 68.9698 255.107 68.9505 255.383 69.0032C255.659 69.0558 255.917 69.1787 256.131 69.3599C256.521 69.7293 256.713 70.6022 256.708 71.9787L256.685 78.3606L259.723 77.6552L259.748 71.0784C259.755 68.9755 259.382 67.7407 258.46 66.9405ZM242.945 76.1564L236.561 75.2704L238.221 72.8531L243.005 65.8773L242.955 73.5773L242.945 76.1564Z"
        fill="white" />
    <path
        d="M270.168 63.0532L270.165 63.8321C269.204 63.2772 268.066 63.1126 266.987 63.3721C265.36 63.7626 263.903 64.6694 262.834 65.9569C261.5 67.4152 260.755 69.3172 260.743 71.294C260.702 72.0391 260.823 72.7844 261.097 73.4785C261.371 74.1727 261.792 74.7992 262.331 75.315C262.942 75.8767 263.687 76.2706 264.495 76.4581C265.303 76.6456 266.145 76.6204 266.941 76.385C268.165 76.0637 269.271 75.3977 270.127 74.4661L270.124 75.2447L273.163 74.5414L273.206 62.3638L270.168 63.0532ZM269.485 71.7032C269.217 72.1592 268.858 72.5558 268.431 72.8688C268.004 73.1818 267.518 73.4046 267.003 73.5238C266.622 73.6344 266.219 73.6525 265.83 73.5764C265.44 73.5004 265.074 73.3324 264.763 73.0865C264.425 72.7701 264.164 72.3802 264 71.9469C263.837 71.5136 263.775 71.0485 263.82 70.5876C263.802 69.6797 264.05 68.7864 264.533 68.0176C264.801 67.5709 265.154 67.1821 265.574 66.874C265.994 66.5658 266.47 66.3445 266.976 66.2231C267.362 66.1018 267.771 66.0767 268.168 66.1499C268.565 66.2231 268.939 66.3925 269.255 66.6431C269.585 66.9591 269.84 67.3452 270.001 67.7729C270.162 68.2006 270.225 68.6589 270.185 69.1142C270.201 70.0259 269.959 70.9238 269.485 71.7032Z"
        fill="white" />
    <path
        d="M284.936 60.92C284.43 60.5072 283.834 60.2207 283.195 60.0843C282.557 59.948 281.895 59.9656 281.264 60.1358C280.2 60.4041 279.241 60.9847 278.51 61.803L278.512 61.1603L275.473 61.8491L275.431 74.0164L278.47 73.3138L278.491 67.238C278.41 66.2314 278.603 65.2218 279.048 64.3155C279.514 63.6398 280.227 63.1748 281.033 63.0215C281.299 62.9326 281.584 62.9132 281.859 62.9651C282.135 63.0169 282.393 63.1383 282.609 63.3178C282.998 63.6831 283.191 64.5472 283.186 65.9102L283.165 72.2292L286.203 71.5278L286.225 65.0158C286.232 62.9337 285.859 61.7114 284.936 60.92Z"
        fill="white" />
    <path
        d="M296.851 57.0127L296.848 57.7839C295.885 57.2353 294.749 57.0736 293.67 57.3317C292.047 57.7178 290.591 58.6165 289.519 59.8947C288.187 61.3343 287.441 63.2199 287.429 65.1809C287.389 65.9199 287.51 66.6588 287.785 67.3461C288.059 68.0334 288.48 68.6525 289.019 69.1603C289.632 69.7166 290.378 70.1058 291.185 70.2905C291.993 70.4751 292.834 70.4491 293.628 70.2149C294.85 69.8969 295.955 69.2367 296.814 68.312L296.811 69.0827L299.85 68.3833L299.889 56.3271L296.851 57.0127ZM296.171 65.5771C295.901 66.0301 295.542 66.4236 295.115 66.7338C294.689 67.044 294.204 67.2645 293.69 67.382C293.309 67.492 292.907 67.5103 292.518 67.4354C292.129 67.3606 291.763 67.1947 291.45 66.9512C291.112 66.64 290.851 66.2546 290.687 65.8255C290.524 65.3964 290.462 64.9351 290.507 64.4781C290.489 63.5781 290.736 62.6928 291.219 61.9328C291.488 61.4891 291.842 61.1033 292.261 60.7979C292.681 60.4925 293.156 60.2736 293.661 60.1539C294.046 60.0334 294.455 60.0081 294.852 60.0801C295.248 60.1521 295.622 60.3193 295.94 60.5674C296.269 60.8787 296.524 61.2603 296.685 61.6838C296.846 62.1073 296.909 62.5617 296.87 63.0131C296.886 63.9169 296.644 64.8065 296.171 65.5771Z"
        fill="white" />
    <path
        d="M308.256 56.5004L306.669 56.2417C305.659 56.0823 305.047 55.7417 304.815 55.2217L301.741 55.9147C301.944 57.6855 303.16 58.7641 305.42 59.1323L306.945 59.3786C307.537 59.4511 308.115 59.6175 308.655 59.8715C308.879 59.994 309.064 60.1776 309.189 60.4009C309.313 60.6242 309.372 60.8782 309.358 61.1335C309.345 61.8517 309.089 62.5443 308.632 63.0986C308.159 63.7297 307.476 64.1714 306.706 64.3447C305.316 64.6629 304.413 64.0379 304.008 62.4535C303.972 62.3235 303.923 62.1327 303.862 61.8691L300.93 63.3198C301.052 63.7967 301.126 64.0954 301.15 64.2159C301.384 65.2384 302.003 66.1313 302.878 66.709C303.434 67.0514 304.055 67.2737 304.702 67.3616C305.349 67.4496 306.007 67.4011 306.634 67.2195C308.121 66.8846 309.467 66.0964 310.486 64.9637C311.696 63.7559 312.386 62.1232 312.41 60.4137C312.439 59.915 312.358 59.4159 312.173 58.9518C311.989 58.4877 311.704 58.0698 311.34 57.7278C310.447 57.0383 309.378 56.613 308.256 56.5004Z"
        fill="white" />
    <path
        d="M302.164 53.1211L307.035 52.0283V52.0303C307.047 52.0277 307.055 52.0225 307.067 52.0203C307.375 51.9362 307.699 51.924 308.012 51.9847C308.326 52.0454 308.622 52.1773 308.876 52.3703C309.224 52.6924 309.534 53.0525 309.801 53.4438L309.803 53.4466L309.811 53.4399L312.546 52.0979C312.45 51.8551 312.339 51.6186 312.214 51.3898L312.216 51.3885L312.207 51.374C312.202 51.3645 312.197 51.3519 312.192 51.3425L312.189 51.3454C312.078 51.1417 311.955 50.9451 311.821 50.7567L311.811 50.7442C311.713 50.6132 311.609 50.4873 311.498 50.367C311.458 50.3212 311.419 50.2782 311.381 50.237C310.843 49.6739 310.157 49.2743 309.402 49.0843C308.647 48.8943 307.853 48.9216 307.113 49.1631C307.09 49.1684 307.068 49.1781 307.044 49.1837V49.1785L249.018 62.2085L249.007 65.1219L302.164 53.1211Z"
        fill="white" />
</svg>