<svg xmlns="http://www.w3.org/2000/svg" data-name="Layer 1" viewBox="0 0 32 32">
    <path
        d="M9 1H5a3 3 0 0 0-3 3v24a3 3 0 0 0 3 3h22a3 3 0 0 0 3-3V4a3 3 0 0 0-3-3h-4a1 1 0 0 0 0 2h4a1 1 0 0 1 1 1v15h-5.93a2.993 2.993 0 0 0-2.5 1.336l-.812 1.219a1 1 0 0 1-.828.445h-3.86a1 1 0 0 1-.832-.445l-.812-1.219A2.993 2.993 0 0 0 9.93 19H4V4a1 1 0 0 1 1-1h4a1 1 0 0 0 0-2Zm.93 20a1 1 0 0 1 .832.445l.812 1.219A2.993 2.993 0 0 0 14.07 24h3.86a2.993 2.993 0 0 0 2.5-1.336l.812-1.219A1 1 0 0 1 22.07 21H28v7a1 1 0 0 1-1 1H5a1 1 0 0 1-1-1v-7Z" />
    <path
        d="M16 17a1 1 0 0 0 1-1V4.414l3.293 3.293a1.013 1.013 0 0 0 1.414 0 1 1 0 0 0 0-1.414l-5-5a1.015 1.015 0 0 0-1.416 0l-5 5a1 1 0 0 0 0 1.414 1.013 1.013 0 0 0 1.414 0L15 4.414V16a1 1 0 0 0 1 1Z" />
</svg>